<svg width="24" height="24" viewBox="0 0 24 24" fill="none" xmlns="http://www.w3.org/2000/svg">
<path d="M12.4 21.5C9.88047 21.5 7.46411 20.4991 5.68251 18.7175C3.90091 16.9359 2.90002 14.5196 2.90002 12C2.90002 9.48044 3.90091 7.06408 5.68251 5.28249C7.46411 3.50089 9.88047 2.5 12.4 2.5C12.5326 2.5 12.6598 2.55268 12.7536 2.64645C12.8473 2.74021 12.9 2.86739 12.9 3C12.9 3.13261 12.8473 3.25979 12.7536 3.35355C12.6598 3.44732 12.5326 3.5 12.4 3.5C10.9977 3.49169 9.61507 3.83047 8.37543 4.48615C7.13579 5.14183 6.07763 6.09403 5.29528 7.25789C4.51293 8.42174 4.0307 9.76109 3.89156 11.1565C3.75243 12.552 3.96072 13.9602 4.49787 15.2556C5.03501 16.551 5.88432 17.6934 6.9701 18.5809C8.05587 19.4685 9.34438 20.0736 10.7208 20.3423C12.0971 20.6111 13.5186 20.5351 14.8585 20.1212C16.1984 19.7072 17.415 18.9682 18.4 17.97C18.4445 17.9174 18.4993 17.8745 18.5612 17.8441C18.623 17.8136 18.6904 17.7963 18.7592 17.7932C18.8281 17.79 18.8968 17.8012 18.9611 17.8258C19.0254 17.8505 19.084 17.8882 19.133 17.9366C19.1821 17.985 19.2206 18.043 19.2462 18.1069C19.2718 18.1709 19.2839 18.2395 19.2817 18.3083C19.2796 18.3772 19.2632 18.4449 19.2337 18.5071C19.2041 18.5693 19.162 18.6248 19.11 18.67C18.2357 19.5639 17.192 20.2745 16.0399 20.7604C14.8878 21.2463 13.6504 21.4977 12.4 21.5Z" fill="black"/>
<path d="M12.1001 15.2C12.0352 15.2021 11.9707 15.1908 11.9104 15.1667C11.8502 15.1426 11.7956 15.1063 11.7501 15.06L7.75007 11.06C7.70321 11.0136 7.66601 10.9583 7.64063 10.8973C7.61524 10.8364 7.60217 10.7711 7.60217 10.705C7.60217 10.639 7.61524 10.5737 7.64063 10.5128C7.66601 10.4518 7.70321 10.3965 7.75007 10.35C7.84522 10.2578 7.97254 10.2062 8.10507 10.2062C8.2376 10.2062 8.36492 10.2578 8.46007 10.35L12.1001 14L20.2501 5.85005C20.3442 5.7559 20.4719 5.703 20.6051 5.703C20.7382 5.703 20.8659 5.7559 20.9601 5.85005C21.0542 5.9442 21.1071 6.0719 21.1071 6.20505C21.1071 6.3382 21.0542 6.4659 20.9601 6.56005L12.4601 15.06C12.4123 15.1061 12.3559 15.1422 12.2941 15.1662C12.2323 15.1903 12.1664 15.2018 12.1001 15.2Z" fill="black"/>
</svg>
